<svg xmlns="http://www.w3.org/2000/svg" width="1200" height="700" viewBox="0 0 1200 700">
  <defs>
    <linearGradient id="bg" x1="0" y1="0" x2="1" y2="1">
      <stop offset="0" stop-color="#070a14"/>
      <stop offset="1" stop-color="#0a0f22"/>
    </linearGradient>
    <radialGradient id="glow1" cx="20%" cy="26%" r="62%">
      <stop offset="0" stop-color="rgba(167,139,250,0.18)"/>
      <stop offset="1" stop-color="rgba(167,139,250,0)"/>
    </radialGradient>
    <radialGradient id="glow2" cx="86%" cy="26%" r="62%">
      <stop offset="0" stop-color="rgba(56,189,248,0.16)"/>
      <stop offset="1" stop-color="rgba(56,189,248,0)"/>
    </radialGradient>
  </defs>

  <rect width="1200" height="700" fill="url(#bg)"/>
  <rect width="1200" height="700" fill="url(#glow1)"/>
  <rect width="1200" height="700" fill="url(#glow2)"/>

  <g opacity="0.22" fill="none" stroke="rgba(255,255,255,0.7)" stroke-width="2">
    <path d="M190 190 H880 C930 190 970 230 970 280 V520 C970 570 930 610 880 610 H190 C140 610 100 570 100 520 V280 C100 230 140 190 190 190 Z"/>
    <path d="M260 250 H820"/>
    <path d="M260 310 H760"/>
    <path d="M260 370 H800"/>
    <path d="M260 430 H720"/>
  </g>

  <g font-family="Inter, system-ui, -apple-system, Segoe UI, sans-serif">
    <text x="70" y="96" fill="rgba(233,238,255,0.90)" font-size="40" font-weight="750">iNotebook</text>
    <text x="70" y="140" fill="rgba(233,238,255,0.65)" font-size="22" font-weight="550">Notes management with authentication</text>
    <text x="70" y="610" fill="rgba(233,238,255,0.55)" font-size="18">Preview placeholder</text>
  </g>
</svg>
